<svg xmlns="http://www.w3.org/2000/svg" width="129.004" height="106.623" viewBox="0 0 129.004 106.623"><g transform="translate(-5.797)"><path d="M204.139,171.479h0c-21.872,11.639-24.04,31.687-24.04,31.687s-2.259-20.048-24.131-31.687h0c-9.391-5-22.382-8.579-40.417-8.577,0,0,9.809,7.963,11.28,32.961v10.259l.024,10.087c0,46.952,23.838,12.1,53.244,12.1s53.244,34.852,53.244-12.1l.023-10.892v-9.832c1.471-25,11.189-32.582,11.189-32.582C230.852,159.8,213.53,166.481,204.139,171.479Z" transform="translate(-109.755 -134.129)" fill="#b70727"/><path d="M203.312,158.018a1.669,1.669,0,0,0,2.574,0c4.167-4.8,17.754-14.105,30.456-18.494a1.959,1.959,0,0,0,.042-3.624c-15.5-5.752-24.726-16.114-30.205-22.924a1.676,1.676,0,0,0-2.661,0c-5.506,6.841-14.8,17.248-30.443,23a1.957,1.957,0,0,0,.034,3.626,91.087,91.087,0,0,1,10.286,4.032h0C192.9,148.071,199.181,153.263,203.312,158.018Z" transform="translate(-134.423 -112.319)" fill="#1065b0"/><path d="M214.718,190.795A27.07,27.07,0,0,0,187.8,215a27.07,27.07,0,0,0-26.914-24.2c-14.95,0-27.751,12.054-27.751,27s13.9,25.924,28.787,27.332c23.715,2.245,27.9,4.1,51.695-.673,14.658-2.943,28.667-11.772,28.667-28.23C242.288,201.278,229.669,190.795,214.718,190.795Z" transform="translate(-117.458 -146.693)" fill="#f8b900"/><path d="M222.662,283.306l-5.352-10.751a3.625,3.625,0,0,1,.682-4.178l3.919-3.919a3.625,3.625,0,0,1,5.126,0l3.919,3.919a3.625,3.625,0,0,1,.682,4.178l-5.352,10.751A2.025,2.025,0,0,1,222.662,283.306Z" transform="translate(-154.161 -178.494)" fill="#1065b0"/><path d="M220.611,206.116a19.822,19.822,0,0,0-19.6,23.369,18.229,18.229,0,0,0-13.191-.118,19.8,19.8,0,1,0-1.26,4.4,1.686,1.686,0,0,0,.413-.2c.268-.179,6.589-4.4,15.036.1a1.705,1.705,0,0,0,.243.093,19.917,19.917,0,1,0,18.357-27.645ZM168.206,242.55a16.516,16.516,0,1,1,16.516-16.516A16.534,16.534,0,0,1,168.206,242.55Zm52.406,0a16.516,16.516,0,1,1,16.516-16.516A16.534,16.534,0,0,1,220.611,242.55Z" transform="translate(-124.094 -153.404)" fill="#fff"/><path d="M272.288,229.487a8.526,8.526,0,0,1,8.072,5.768,1.7,1.7,0,0,1-3.219,1.1,5.13,5.13,0,0,0-9.807.326,1.7,1.7,0,1,1-3.285-.882A8.542,8.542,0,0,1,272.288,229.487Z" transform="translate(-174.774 -163.641)" fill="#1065b0"/><path d="M177.38,229.487a8.531,8.531,0,0,1,8.073,5.768,1.7,1.7,0,0,1-3.219,1.1,5.13,5.13,0,0,0-9.806.326,1.7,1.7,0,1,1-3.285-.882A8.541,8.541,0,0,1,177.38,229.487Z" transform="translate(-133.202 -163.641)" fill="#1065b0"/></g></svg>