<svg xmlns="http://www.w3.org/2000/svg" width="19.396" height="19.803" viewBox="0 0 19.396 19.803"><g transform="translate(-1046.301 -853.199)"><path d="M25176.705,22942.8a1,1,0,0,1-1.006-1v-1.006a1,1,0,0,1,1.006-.992h16a1,1,0,0,1,1,.992v1.006a1,1,0,0,1-1,1Zm0-1.5a.5.5,0,0,0,.492.506h15.006a.5.5,0,0,0,0-1.006H25177.2A.5.5,0,0,0,25176.705,22941.3Zm12.5-2.5a.5.5,0,0,1-.5-.5v-6a.5.5,0,0,1,.5-.5h1a.5.5,0,0,1,.5.5v6a.5.5,0,0,1-.5.5Zm-5,0a.5.5,0,0,1-.5-.5v-6a.5.5,0,0,1,.5-.5h1a.5.5,0,0,1,.5.5v6a.5.5,0,0,1-.5.5Zm-5,0a.5.5,0,0,1-.5-.5v-6a.5.5,0,0,1,.5-.5h1a.5.5,0,0,1,.5.5v6a.5.5,0,0,1-.5.5Zm-3.2-8a1,1,0,0,1-.557-1.834l8.7-5.8a.987.987,0,0,1,1.107,0l8.7,5.8a1,1,0,0,1-.555,1.834Zm8.643-6.766-8.371,5.576a.1.1,0,0,0-.039.119.1.1,0,0,0,.1.07h16.736a.108.108,0,0,0,.1-.07.107.107,0,0,0-.045-.119l-8.371-5.576a.066.066,0,0,0-.051-.02A.071.071,0,0,0,25184.646,22924.035Zm-1.447,3.262a1.5,1.5,0,1,1,1.5,1.5A1.5,1.5,0,0,1,25183.2,22927.3Z" transform="translate(-24128.701 -22069.799)" fill="#929eac"/></g></svg>