<svg id="Layer_1" data-name="Layer 1" xmlns="http://www.w3.org/2000/svg" viewBox="0 0 20.25 20.25"><defs><style>.cls-1{fill:none;}.cls-2{fill:#4b5b6e;}</style></defs><rect class="cls-1" width="20.25" height="20.25"/><rect class="cls-1" width="20.25" height="20.25"/><path id="View_pass" data-name="View pass" class="cls-2" d="M18.71,9.59A9.91,9.91,0,0,0,9.89,3.82,9.91,9.91,0,0,0,1.07,9.59a1.13,1.13,0,0,0,0,.95,9.91,9.91,0,0,0,8.82,5.77,9.91,9.91,0,0,0,8.82-5.77A1.13,1.13,0,0,0,18.71,9.59ZM9.89,14.75a4.69,4.69,0,0,1,0-9.37,4.69,4.69,0,0,1,0,9.37Zm0-7.81a2.89,2.89,0,0,0-.78.12,1.63,1.63,0,0,1-.15,2A1.43,1.43,0,0,1,7,9.24a3.21,3.21,0,0,0,1.21,3.41,2.87,2.87,0,0,0,3.47-.12,3.19,3.19,0,0,0,1-3.48A3,3,0,0,0,9.89,6.94Z"/></svg>