<svg id="Layer_1" data-name="Layer 1" xmlns="http://www.w3.org/2000/svg" viewBox="0 0 20.25 20.25"><defs><style>.cls-1{fill:none;}.cls-2{fill:#4b5b6e;}</style></defs><rect class="cls-1" width="20.25" height="20.25"/><rect class="cls-1" width="20.25" height="20.25"/><path id="View_pass" data-name="View pass" class="cls-2" d="M12.71,9.05A3,3,0,0,0,9.89,6.94a2.89,2.89,0,0,0-.78.12,1.63,1.63,0,0,1-.15,2,1.32,1.32,0,0,1-.7.4l3.68,2.82A3.18,3.18,0,0,0,12.71,9.05Zm-2.07,5.6a3.66,3.66,0,0,1-.75.1,4.69,4.69,0,0,1-4.43-4.07L2,8a9,9,0,0,0-.91,1.57,1.13,1.13,0,0,0,0,.95,9.91,9.91,0,0,0,8.82,5.77A9.07,9.07,0,0,0,12.34,16Zm8.07-5.06A9.91,9.91,0,0,0,9.89,3.82a9.88,9.88,0,0,0-6.1,2.25L6,7.78a4.71,4.71,0,0,1,3.87-2.4,4.69,4.69,0,0,1,3.24,7.84l2,1.5a9.89,9.89,0,0,0,3.62-4.18A1.13,1.13,0,0,0,18.71,9.59Zm-6-.54A3,3,0,0,0,9.89,6.94a2.89,2.89,0,0,0-.78.12,1.63,1.63,0,0,1-.15,2,1.32,1.32,0,0,1-.7.4l3.68,2.82A3.18,3.18,0,0,0,12.71,9.05Zm0,0A3,3,0,0,0,9.89,6.94a2.89,2.89,0,0,0-.78.12,1.63,1.63,0,0,1-.15,2,1.32,1.32,0,0,1-.7.4l3.68,2.82A3.18,3.18,0,0,0,12.71,9.05Z"/><rect class="cls-2" x="-2" y="8.9" width="24.24" height="1.81" rx="0.56" transform="translate(8.04 -4.14) rotate(37.44)"/></svg>