<svg xmlns="http://www.w3.org/2000/svg" width="19.998" height="19.998" viewBox="0 0 19.998 19.998"><path d="M22399,21790l-.186,0a.316.316,0,0,1-.043,0c-.059,0-.115,0-.172,0l-.055,0-.129-.006-.09-.006c-.039,0-.078,0-.115-.008l-.1-.008-.059-.006c-.064-.006-.129-.012-.193-.02l-.018,0A9.907,9.907,0,0,1,22393,21788v0a10,10,0,1,1,12,0v0a9.907,9.907,0,0,1-5.1,1.961.025.025,0,0,0-.012,0l-.107.008-.088.006c-.039,0-.078.006-.117.008l-.121.006-.059,0c-.057,0-.113,0-.17,0a.331.331,0,0,1-.045,0l-.186,0Zm-9.1-10a9.088,9.088,0,0,0,3.1,6.838,5,5,0,0,1,5-4.836h2a5,5,0,0,1,5,4.836,9.1,9.1,0,1,0-15.1-6.838Zm6.1-2a3,3,0,1,1,3,3A3,3,0,0,1,22396,21778Z" transform="translate(-22389.002 -21770)" fill="#929eac"/></svg>