<svg xmlns="http://www.w3.org/2000/svg" width="21.024" height="20.006" viewBox="0 0 21.024 20.006">
  <path
    d="M14202.328-13849.213a3.983,3.983,0,0,0-1.17-2.831,4,4,0,0,0-2.831-1.17h-5a4,4,0,0,0-3.994,4h-1.006a5.009,5.009,0,0,1,5-5h5a5.01,5.01,0,0,1,5.007,5Zm2.471-4.739v-6.494h-2.51a6.11,6.11,0,0,0-.193-1h5.87a.1.1,0,0,0,.093-.063.118.118,0,0,0-.036-.122l-9.125-6.575a.068.068,0,0,0-.058-.019c-.024,0-.042,0-.053.019l-9.133,6.575a.123.123,0,0,0-.029.122.106.106,0,0,0,.09.061.046.046,0,0,1-.019.018l-.007.007-.011.015a6.373,6.373,0,0,0-.756.881.99.99,0,0,1-.542-.61.991.991,0,0,1,.371-1.123l9.511-6.771a.98.98,0,0,1,.577-.183,1.014,1.014,0,0,1,.585.183l9.508,6.771a.979.979,0,0,1,.367,1.123.98.98,0,0,1-.949.7h-2.553v6.494a.5.5,0,0,1-.5.5A.5.5,0,0,1,14204.8-13853.952Zm-12.471-5.271a3.5,3.5,0,0,1,3.5-3.5,3.5,3.5,0,0,1,3.5,3.5,3.5,3.5,0,0,1-3.5,3.5A3.5,3.5,0,0,1,14192.328-13859.223Z"
    transform="translate(-14188.327 13869.219)" fill="#0077DB"/>
</svg>
