<svg xmlns="http://www.w3.org/2000/svg" width="20.002" height="13.998" viewBox="0 0 20.002 13.998">
  <path
    d="M22436,21832.492v-1.486a4.007,4.007,0,0,0-4-4h-2a4.068,4.068,0,0,0-.924.107,4.979,4.979,0,0,0-.732-.822,5.026,5.026,0,0,1,1.656-.281h2a5.011,5.011,0,0,1,5,5v.992H22437v.494a.5.5,0,1,1-1,0Zm-8,0v-1.486a4,4,0,0,0-3.992-4H22422a4,4,0,0,0-4,4v1H22418v.488a.5.5,0,1,1-1,0v-1.486a5.01,5.01,0,0,1,5-5h2.006a5,5,0,0,1,4.994,5v.992H22429v.494a.5.5,0,1,1-1,0Zm.006-10.49a3,3,0,1,1,2.994,3A3,3,0,0,1,22428.006,21822Zm-8,0a3,3,0,1,1,3,3A3,3,0,0,1,22420,21822Z"
    transform="translate(-22417.002 -21819.002)" fill="#0077DB"/>
</svg>
