<svg xmlns="http://www.w3.org/2000/svg" width="16" height="16" viewBox="0 0 16 16">
  <g transform="translate(-2.5 -2.6)">
    <path
      d="M16.763,4.444H14.926V3.31a.714.714,0,0,0-.708-.71h-.86a.714.714,0,0,0-.708.71V4.427H8.367V3.31a.714.714,0,0,0-.708-.71H6.8a.714.714,0,0,0-.708.71V4.427H4.253A1.755,1.755,0,0,0,2.5,6.186V16.841A1.755,1.755,0,0,0,4.253,18.6H16.746A1.755,1.755,0,0,0,18.5,16.841V6.186A1.737,1.737,0,0,0,16.763,4.444Zm0,13.175H4.253a.757.757,0,0,1-.759-.761v-8.3h14.01v8.3A.743.743,0,0,1,16.763,17.619Z"
      fill="#4b5b6e"/>
    <path
      d="M19.81,46.9H17.955a.454.454,0,0,0-.455.457v1.4a.454.454,0,0,0,.455.457H19.81a.454.454,0,0,0,.455-.457v-1.4A.454.454,0,0,0,19.81,46.9Z"
      transform="translate(-12.471 -36.807)" fill="#4b5b6e"/>
    <path
      d="M44.21,46.9H42.355a.454.454,0,0,0-.455.457v1.4a.454.454,0,0,0,.455.457H44.21a.454.454,0,0,0,.455-.457v-1.4A.454.454,0,0,0,44.21,46.9Z"
      transform="translate(-32.757 -36.807)" fill="#4b5b6e"/>
    <path
      d="M68.71,46.9H66.855a.454.454,0,0,0-.455.457v1.4a.454.454,0,0,0,.455.457H68.71a.454.454,0,0,0,.455-.457v-1.4A.454.454,0,0,0,68.71,46.9Z"
      transform="translate(-53.127 -36.807)" fill="#4b5b6e"/>
    <path
      d="M19.81,68.9H17.955a.454.454,0,0,0-.455.457v1.4a.454.454,0,0,0,.455.457H19.81a.454.454,0,0,0,.455-.457v-1.4A.454.454,0,0,0,19.81,68.9Z"
      transform="translate(-12.471 -55.086)" fill="#4b5b6e"/>
    <path
      d="M44.21,68.9H42.355a.454.454,0,0,0-.455.457v1.4a.454.454,0,0,0,.455.457H44.21a.454.454,0,0,0,.455-.457v-1.4A.454.454,0,0,0,44.21,68.9Z"
      transform="translate(-32.757 -55.086)" fill="#4b5b6e"/>
    <path
      d="M68.71,68.9H66.855a.454.454,0,0,0-.455.457v1.4a.454.454,0,0,0,.455.457H68.71a.454.454,0,0,0,.455-.457v-1.4A.454.454,0,0,0,68.71,68.9Z"
      transform="translate(-53.127 -55.086)" fill="#4b5b6e"/>
  </g>
</svg>
