<svg xmlns="http://www.w3.org/2000/svg" width="19.592" height="13.998" viewBox="0 0 19.592 13.998">
  <path
    d="M22400.17,21613a2,2,0,0,1-2-2v-.5a.5.5,0,1,1,1,0v.5a1,1,0,0,0,.3.709.985.985,0,0,0,.7.293h6a1.006,1.006,0,0,0,1-1v-10a1,1,0,0,0-1-1h-6a.994.994,0,0,0-.994,1v.5a.5.5,0,1,1-1,0v-.5a2,2,0,0,1,2-2h6a2,2,0,0,1,2,2v10a2.006,2.006,0,0,1-2,2Zm-7.7-2.705-3.588-3.588a1,1,0,0,1,0-1.418l3.588-3.582a1,1,0,0,1,1.7.7v2.586h7a1,1,0,0,1,0,2h-7v2.588a1,1,0,0,1-1.006,1.006A.988.988,0,0,1,22392.467,21610.293Z"
    transform="translate(-22388.582 -21599)" fill="#0077DB"/>
</svg>
