<svg xmlns="http://www.w3.org/2000/svg" width="20.004" height="19.977" viewBox="0 0 20.004 19.977">
  <path id="Classes" d="M22405.725,21989.605l-1.5-5.617h-4.717v3.508a.5.5,0,0,1-1,0v-3.508h-4.719l-1.5,5.617a.5.5,0,0,1-.488.365.349.349,0,0,1-.125-.016.5.5,0,0,1-.309-.227.538.538,0,0,1-.045-.387l1.434-5.354h-1.748a2.006,2.006,0,0,1-2.008-2v-8a2.008,2.008,0,0,1,2.008-2h7.5v-1.5a.5.5,0,0,1,1,0v1.5h7.5a2,2,0,0,1,2,2v8a2,2,0,0,1-2,2h-1.756l1.436,5.354a.45.45,0,0,1-.051.377.462.462,0,0,1-.3.236.334.334,0,0,1-.123.016A.5.5,0,0,1,22405.725,21989.605Zm-.742-6.619v.006h2.025a1,1,0,0,0,.994-1v-8a.994.994,0,0,0-.994-1h-16a1,1,0,0,0-1,1v8a1,1,0,0,0,1,1h2.014v-.006h1.039l-.006.006h4.455v-.006h1v.006h4.447v-.006Zm-13.48-1a.5.5,0,0,1-.5-.5v-7a.5.5,0,0,1,.5-.5h15a.5.5,0,0,1,.5.5v7a.5.5,0,0,1-.5.5Z" transform="translate(-22389 -21969.994)" fill="#929eac"/>
</svg>
