<svg xmlns="http://www.w3.org/2000/svg" width="18.002" height="20.002" viewBox="0 0 18.002 20.002">
  <path
    d="M22421,21890.006a2,2,0,0,1-2-2v-15a2,2,0,0,1,2-2h3a1,1,0,0,1,1-1h6a1,1,0,0,1,1,1h3a2,2,0,0,1,2,2v15a2,2,0,0,1-2,2Zm-1-17v15a1,1,0,0,0,1,1h14a1,1,0,0,0,1-1v-15a1,1,0,0,0-1-1h-3a1,1,0,0,1-1,1h-6a1,1,0,0,1-1-1h-3A1,1,0,0,0,22420,21873.006Zm3.006,8.5a4.5,4.5,0,0,1,4.488-4.5v4.5h4.51a4.5,4.5,0,0,1-9,0Zm5.484-1.008v-4.492a4.5,4.5,0,0,1,4.512,4.492Z"
    transform="translate(-22419 -21870.004)" fill="#0077DB"/>
</svg>
