<svg xmlns="http://www.w3.org/2000/svg" width="16" height="20" viewBox="0 0 16 20">
  <g id="Icon" transform="translate(-16.647 -5)">
    <path id="Path_2" data-name="Path 2" d="M20.865,52.5a1.536,1.536,0,0,1,1.59-1.473h.033L27.47,52l4.982-.975h.033A1.536,1.536,0,0,1,34.075,52.5v.141a2.367,2.367,0,0,1,.5.1,4.509,4.509,0,0,0-4.259-4.185c-.018.793-1.287,1.433-2.85,1.433s-2.831-.64-2.85-1.433a4.509,4.509,0,0,0-4.259,4.185,2.349,2.349,0,0,1,.5-.1Z" transform="translate(-2.823 -33.876)" fill="#929eac"/>
    <path id="Path_3" data-name="Path 3" d="M39.369,27.552a2.249,2.249,0,0,1-1.511,0l-1.649-.661-1.157-.464a3.416,3.416,0,0,0-.032.454c0,.073,0,.146.007.218.007.106.018.21.034.313,0,.031.006.062.009.094.227,2.375,1.727,4.21,3.543,4.21s3.317-1.835,3.543-4.21l.008-.094c.016-.1.027-.208.033-.313,0-.072.007-.145.007-.218a3.453,3.453,0,0,0-.032-.454l-1.156.464Z" transform="translate(-13.967 -16.665)" fill="#929eac"/>
    <path id="Path_4" data-name="Path 4" d="M28.55,7.3l.336.134-.028.209a.259.259,0,0,0-.227.249.255.255,0,0,0,.189.24l-.2,2.644a1.124,1.124,0,0,0,.053.391l.165.46c.019.052.044.079.069.079s.05-.026.069-.079l.166-.46a1.13,1.13,0,0,0,.053-.391l-.2-2.644a.256.256,0,0,0,.189-.24.259.259,0,0,0-.227-.249l-.026-.194.775.311.379.152V9.273l1.254.5,1.649.662a1.692,1.692,0,0,0,1.09,0l1.649-.662,1.254-.5V7.916l.379-.152L38.5,7.3c.3-.12.3-.317,0-.437L34.069,5.091a1.685,1.685,0,0,0-1.09,0L28.55,6.867C28.25,6.987,28.25,7.184,28.55,7.3Z" transform="translate(-8.877)" fill="#929eac"/>
    <path id="Path_5" data-name="Path 5" d="M30.764,63.251l-4.729-.925a.919.919,0,0,0-.923.883v.141a2.145,2.145,0,0,1,2.03,2.065v.955A2.122,2.122,0,0,1,25.376,68.4a.987.987,0,0,0,.691.276H26.1l4.665.913Z" transform="translate(-6.435 -44.587)" fill="#929eac"/>
    <path id="Path_6" data-name="Path 6" d="M54.945,66.37v-.955a2.146,2.146,0,0,1,2.031-2.065v-.14a.919.919,0,0,0-.923-.883l-4.729.925v6.336l4.665-.913h.033a.987.987,0,0,0,.691-.276A2.123,2.123,0,0,1,54.945,66.37Z" transform="translate(-26.359 -44.587)" fill="#929eac"/>
    <path id="Path_7" data-name="Path 7" d="M20.072,71.979v-.955a1.548,1.548,0,0,0-1.6-1.486h-.218a1.548,1.548,0,0,0-1.6,1.486v.955a1.548,1.548,0,0,0,1.6,1.486h.218A1.548,1.548,0,0,0,20.072,71.979Z" transform="translate(0 -50.196)" fill="#929eac"/>
    <path id="Path_8" data-name="Path 8" d="M70.893,69.539h-.218a1.548,1.548,0,0,0-1.6,1.486v.955a1.548,1.548,0,0,0,1.6,1.486h.218a1.548,1.548,0,0,0,1.6-1.486v-.955A1.548,1.548,0,0,0,70.893,69.539Z" transform="translate(-39.85 -50.197)" fill="#929eac"/>
  </g>
</svg>
