<svg xmlns="http://www.w3.org/2000/svg" width="16.008" height="20" viewBox="0 0 16.008 20"><path d="M22402,21939.5v-.5h0a4.008,4.008,0,0,0-4-4h-6a4,4,0,0,0-4,4.008H22388v.49a.5.5,0,0,1-.5.5.506.506,0,0,1-.506-.5v-.5h.006a5.011,5.011,0,0,1,5-5h6a5.006,5.006,0,0,1,5,5H22403v.5a.5.5,0,0,1-1,0Zm-11-11.5a4.016,4.016,0,0,1,.137-1.025.34.34,0,0,1-.035-.021.393.393,0,0,1-.176-.336v-2.6l-2-.686a.378.378,0,0,1-.281-.361.438.438,0,0,1,.236-.4l5.465-2.439a1.622,1.622,0,0,1,1.281,0l5.453,2.439a.436.436,0,0,1,.248.4.726.726,0,0,1-.09.23v3.273a1.009,1.009,0,0,1-.41,1.916,1,1,0,0,1-.41-1.916v-2.924l-1.373.467v2.6a.415.415,0,0,1-.174.336s0,0,0,0a4.142,4.142,0,0,1,.139,1.043,4,4,0,0,1-8.006,0Zm7.23-1.951v-2.064a9.879,9.879,0,0,0-6.488,0v2.064a10.655,10.655,0,0,1,6.488,0Zm.438-2.777,1.125-.383-4.5-2.012a.8.8,0,0,0-.629,0l-4.5,2.012,1.125.383a10.871,10.871,0,0,1,7.375,0Z" transform="translate(-22386.998 -21920)" fill="#929eac"/></svg>