<svg xmlns="http://www.w3.org/2000/svg" width="21" height="19.998" viewBox="0 0 21 19.998"><defs><style>.a{fill:#929eac;}</style></defs><path class="a" d="M12439-13850.506v-.494a2.965,2.965,0,0,0-.877-2.12,2.982,2.982,0,0,0-2.123-.877h-4a3,3,0,0,0-3,3H12429v.494a.5.5,0,0,1-.5.5.5.5,0,0,1-.494-.5v-.5a4.005,4.005,0,0,1,4-3.992h4a4,4,0,0,1,4,3.992h0v.5a.5.5,0,0,1-.5.5A.5.5,0,0,1,12439-13850.506Zm-20,0v-.5h.007V-13855a5.005,5.005,0,0,1,5-5h5.093a4.94,4.94,0,0,0-.1.992l-5,0a4.008,4.008,0,0,0-4.006,4v4.494a.5.5,0,0,1-.5.5A.5.5,0,0,1,12419-13850.5Zm12-8.5a3,3,0,0,1,3-3,3,3,0,0,1,3,3,3,3,0,0,1-3,3A3,3,0,0,1,12431-13859Zm-8-7a4,4,0,0,1,4-4,4.006,4.006,0,0,1,4,4,4,4,0,0,1-4,4A4,4,0,0,1,12423-13866Z" transform="translate(-12419.002 13870.002)"/></svg>