<svg xmlns="http://www.w3.org/2000/svg" width="11.004" height="11.001" viewBox="0 0 11.004 11.001"><path d="M22225-5479a1,1,0,0,1-1-1v-2.5a.5.5,0,0,1,.5-.5.5.5,0,0,1,.5.5v2a.507.507,0,0,0,.5.5h8a.5.5,0,0,0,.5-.5v-2a.5.5,0,0,1,.5-.5.5.5,0,0,1,.5.5v.5h.006v2a1,1,0,0,1-1,1Zm4-3.248v-3.5h1v3.5a.5.5,0,0,1-.5.5A.5.5,0,0,1,22229-5482.247Zm-1.082-3.5a1,1,0,0,1-.82-1.574l1.584-2.254a1,1,0,0,1,1.635,0l1.58,2.254a1,1,0,0,1,.184.575,1,1,0,0,1-1,1Z" transform="translate(-22224.004 5490)" fill="#0077db"/></svg>