<svg xmlns="http://www.w3.org/2000/svg" width="19.391" height="17.795" viewBox="0 0 19.391 17.795"><path d="M22423.9,22136.488v-.006h-3a2,2,0,0,1-2-2v-7.586l-1.842,1.842a.492.492,0,0,1-.7,0,.5.5,0,0,1,0-.709l2.545-2.545,6.65-6.65a.5.5,0,0,1,.7.006l4.646,4.643v-2.5a.5.5,0,0,1,.5-.5h1a.5.5,0,0,1,.5.5v4.506l2.545,2.543a.5.5,0,0,1-.709.709l-1.836-1.836v7.58a2,2,0,0,1-2,2h-3v.006Zm7-1a1,1,0,0,0,1-1v-8.582l-6-6-6,6,0,8.582a1,1,0,0,0,1,1h3v-6a1,1,0,0,1,1-1h2a1,1,0,0,1,1,1v6Z" transform="translate(-22416.209 -22118.693)" fill="#0077db"/></svg>