<svg xmlns="http://www.w3.org/2000/svg" width="19.992" height="18.188" viewBox="0 0 19.992 18.188">
  <path id="Manage_classes" data-name="Manage classes"
        d="M22391.025,22037.174a.467.467,0,0,1-.3-.23.479.479,0,0,1-.051-.387l.949-3.555h-1.637a1,1,0,0,1-.994-1v-6a1,1,0,0,1,.994-1h4.5v-.5a.5.5,0,0,1,.5-.5.506.506,0,0,1,.506.5v.5h4.5a1,1,0,0,1,1,1v6a1,1,0,0,1-1,1h-1.828l.951,3.555a.528.528,0,0,1-.051.387.5.5,0,0,1-.3.23.419.419,0,0,1-.123.012.493.493,0,0,1-.484-.365l-1.023-3.818h-1.637v2.5a.5.5,0,0,1-.506.5.494.494,0,0,1-.5-.5v-2.5h-1.828l-1.023,3.818a.493.493,0,0,1-.479.371A.47.47,0,0,1,22391.025,22037.174Zm-1.035-10.674v5a.5.5,0,0,0,.5.5h9a.506.506,0,0,0,.506-.5v-5a.506.506,0,0,0-.506-.5h-9A.5.5,0,0,0,22389.99,22026.5Zm16.158,5.32-1.023-3.818h-1.637v2.5a.5.5,0,0,1-.512.5.487.487,0,0,1-.484-.422V22027h4.988a.5.5,0,0,0,.5-.5v-5a.5.5,0,0,0-.5-.494h-9a.5.5,0,0,0-.5.494v2h-1v-2.5a1,1,0,0,1,1-1h4.5v-.5a.489.489,0,0,1,.49-.5.507.507,0,0,1,.512.5v.5h4.494a1,1,0,0,1,1.006,1V22027a1,1,0,0,1-1.006,1h-1.822l.949,3.555a.5.5,0,0,1-.051.383.487.487,0,0,1-.3.23.5.5,0,0,1-.123.01A.492.492,0,0,1,22406.148,22031.82Zm-14.953-.82a.2.2,0,0,1-.2-.2v-3.605a.2.2,0,0,1,.2-.2h7.6a.2.2,0,0,1,.2.2v3.605a.2.2,0,0,1-.2.2Z"
        transform="translate(-22388.996 -22019.004)" fill="#0077DB"/>
</svg>
