<svg xmlns="http://www.w3.org/2000/svg" width="16.006" height="20.001" viewBox="0 0 16.006 20.001">
  <path
    d="M14193.984-13734.525l.222-1.3a.45.45,0,0,0-.129-.4l-.94-.919a.453.453,0,0,1,.249-.771l1.3-.188a.456.456,0,0,0,.335-.25l.577-1.184a.449.449,0,0,1,.806,0l.581,1.18a.433.433,0,0,0,.335.246l1.3.189a.451.451,0,0,1,.25.77l-.937.924a.46.46,0,0,0-.129.4l.225,1.3a.447.447,0,0,1-.648.474l-1.162-.612a.441.441,0,0,0-.417,0l-1.159.613a.444.444,0,0,1-.208.053A.453.453,0,0,1,14193.984-13734.525Zm9.012-3.976v-.5h.008a3.965,3.965,0,0,0-1.173-2.826,3.953,3.953,0,0,0-2.823-1.173h-6a4,4,0,0,0-4,4.007H14189v.491a.5.5,0,0,1-.5.5.5.5,0,0,1-.5-.5v-.5h.008a5,5,0,0,1,5-4.994h6a5,5,0,0,1,5,4.994h0v.5a.5.5,0,0,1-.5.5A.5.5,0,0,1,14203-13738.5ZM14192-13750a4,4,0,0,1,4-4,4,4,0,0,1,4,4,4,4,0,0,1-4,4A4,4,0,0,1,14192-13750Z"
    transform="translate(-14187.999 13754)" fill="#0077DB"/>
</svg>
