<svg xmlns="http://www.w3.org/2000/svg" width="21.001" height="20.004" viewBox="0 0 21.001 20.004"><defs><style>.a{fill:#929eac;}</style></defs><path class="a" d="M12433-13966.5v-.5h.007a3.96,3.96,0,0,0-1.18-2.822A3.968,3.968,0,0,0,12429-13971h-5a4,4,0,0,0-4,4v0h0v.491a.5.5,0,0,1-.5.5.5.5,0,0,1-.5-.5v-.5h.007a5.005,5.005,0,0,1,5-5h5a5.012,5.012,0,0,1,5,5H12434v.5a.5.5,0,0,1-.5.5A.5.5,0,0,1,12433-13966.5Zm-10-11a3.5,3.5,0,0,1,3.5-3.5,3.5,3.5,0,0,1,3.5,3.5,3.5,3.5,0,0,1-3.5,3.5A3.5,3.5,0,0,1,12423-13977.5Zm-.747,3.5-2.261,0a1,1,0,0,1-1-1v-10a1,1,0,0,1,1-1h19a1,1,0,0,1,1,1v10a1,1,0,0,1-1,1h-8.245a5.6,5.6,0,0,0,.656-1h7.09a.5.5,0,0,0,.5-.5v-9a.5.5,0,0,0-.5-.5h-18a.5.5,0,0,0-.5.5v9a.5.5,0,0,0,.5.5h1.106a5.473,5.473,0,0,0,.656,1l0,0Z" transform="translate(-12419 13986.001)"/></svg>